<?xml version="1.0" encoding="UTF-8"?>
<!DOCTYPE svg PUBLIC "-//W3C//DTD SVG 1.1//EN" "http://www.w3.org/Graphics/SVG/1.1/DTD/svg11.dtd">
<svg version="1.1" xmlns="http://www.w3.org/2000/svg" xmlns:xlink="http://www.w3.org/1999/xlink" x="0" y="0" width="844" height="716" viewBox="0, 0, 844, 716">
  <g id="Layer_1">
    <path d="M266.58,173.668 C261.308,169.056 234.952,157.196 223.092,188.82 L262.624,197.384 L266.58,173.668" fill="#FFFFFE"/>
    <path d="M266.58,173.668 C261.308,169.056 234.952,157.196 223.092,188.82 L262.624,197.384 L266.58,173.668 z" fill-opacity="0" stroke="#6E5E4E" stroke-width="4"/>
    <path d="M254.72,190.14 C253.4,183.552 246.152,165.104 232.976,186.184 L254.72,190.14" fill="#FFFFFE"/>
    <path d="M254.72,190.14 C253.4,183.552 246.152,165.104 232.976,186.184 L254.72,190.14 z" fill-opacity="0" stroke="#6E5E4E" stroke-width="4"/>
    <path d="M717.88,306.092 C717.88,315.32 715.244,370.664 717.88,390.424 C708.656,390.424 669.124,379.884 666.492,373.292 C663.852,366.708 675.712,304.776 680.984,298.188 C686.256,291.6 716.564,302.14 717.88,306.092" fill="#FFFFFE"/>
    <path d="M717.88,306.092 C717.88,315.32 715.244,370.664 717.88,390.424 C708.656,390.424 669.124,379.884 666.492,373.292 C663.852,366.708 675.712,304.776 680.984,298.188 C686.256,291.6 716.564,302.14 717.88,306.092 z" fill-opacity="0" stroke="#6E5E4E" stroke-width="4"/>
    <path d="M325.872,28.068 C325.872,28.068 333.78,22.14 332.46,20.16 C331.14,18.184 300.836,5.008 289.636,10.936 C280.748,15.64 262.624,36.632 262.624,186.844 L262.624,197.384 C262.624,197.384 287.004,219.128 289.636,217.812 C292.272,216.492 344.32,143.364 344.32,136.772 C344.32,130.188 325.872,28.068 325.872,28.068" fill="#FFFFFE"/>
    <path d="M325.872,28.068 C325.872,28.068 333.78,22.14 332.46,20.16 C331.14,18.184 300.836,5.008 289.636,10.936 C280.748,15.64 262.624,36.632 262.624,186.844 L262.624,197.384 C262.624,197.384 287.004,219.128 289.636,217.812 C292.272,216.492 344.32,143.364 344.32,136.772 C344.32,130.188 325.872,28.068 325.872,28.068 z" fill-opacity="0" stroke="#6E5E4E" stroke-width="4"/>
    <path d="M292.272,199.364 C279.976,192.336 264.16,187.944 253.62,186.184 C243.076,184.428 159.624,167.74 80.568,236.256 C1.504,304.776 15.564,344.308 19.076,364.512 C25.74,402.848 110.356,486.704 387.144,497.156 C433.704,498.916 550.532,495.84 607.196,489.252 C663.852,482.664 742.916,456.308 754.772,449.724 C762.68,443.132 779.804,399.648 742.916,378.564 C731.056,375.928 638.82,354.848 620.372,349.576 C592.584,341.64 414.72,258.504 392.416,244.164 C373.968,232.304 308.084,204.636 292.272,199.364" fill="#FFFFFE"/>
    <path d="M292.272,199.364 C279.976,192.336 264.16,187.944 253.62,186.184 C243.076,184.428 159.624,167.74 80.568,236.256 C1.504,304.776 15.564,344.308 19.076,364.512 C25.74,402.848 110.356,486.704 387.144,497.156 C433.704,498.916 550.532,495.84 607.196,489.252 C663.852,482.664 742.916,456.308 754.772,449.724 C762.68,443.132 779.804,399.648 742.916,378.564 C731.056,375.928 638.82,354.848 620.372,349.576 C592.584,341.64 414.72,258.504 392.416,244.164 C373.968,232.304 308.084,204.636 292.272,199.364 z" fill-opacity="0" stroke="#6E5E4E" stroke-width="4"/>
    <path d="M754.772,449.724 C742.916,456.308 663.852,482.664 607.196,489.252 C550.532,495.84 433.704,498.916 387.144,497.156 C110.356,486.704 25.74,402.848 19.076,364.512 C17.688,356.528 14.652,345.52 16.368,330.9 C35.328,375.928 84.108,480.772 488.6,487.928 C637.5,490.568 754.772,449.724 754.772,449.724" fill="#C7E7F1"/>
    <path d="M292.272,199.364 C279.976,192.336 264.16,187.944 253.62,186.184 C243.076,184.428 159.624,167.74 80.568,236.256 C1.504,304.776 15.564,344.308 19.076,364.512 C25.74,402.848 110.356,486.704 387.144,497.156 C433.704,498.916 550.532,495.84 607.196,489.252 C663.852,482.664 742.916,456.308 754.772,449.724 C762.68,443.132 779.804,399.648 742.916,378.564 C731.056,375.928 638.82,354.848 620.372,349.576 C592.584,341.64 414.72,258.504 392.416,244.164 C373.968,232.304 308.084,204.636 292.272,199.364 z" fill-opacity="0" stroke="#6E5E4E" stroke-width="4"/>
    <path d="M181.584,286.328 L173.68,314 C61.68,337.72 55.092,271.836 59.248,256.248 C65.468,249.876 72.532,243.216 80.568,236.256 C97.708,221.4 115.056,210.552 131.824,202.684 C114.388,227.032 107.796,263.928 181.584,286.328" fill="#758288"/>
    <path d="M181.584,286.328 L173.68,314 C61.68,337.72 55.092,271.836 59.248,256.248 C65.468,249.876 72.532,243.216 80.568,236.256 C97.708,221.4 115.056,210.552 131.824,202.684 C114.388,227.032 107.796,263.928 181.584,286.328 z M267.236,360.116 C277.776,340.352 312.352,359.14 314.988,363.092 C310.504,393.416 295.944,425.664 285.404,433.572 C270.612,430.088 262.78,430.088 237.548,422.256 C247.988,408.336 263.284,373.292 267.236,360.116 z" fill-opacity="0" stroke="#6E5E4E" stroke-width="4"/>
    <path d="M172.364,435.228 C304.132,491.884 623.94,486.596 759.66,437.844 L762.968,428.072 C697.548,448.4 578.72,460.372 462.436,456.636 C340.22,452.712 247.988,429.22 182.548,409.744 L172.364,435.228" fill="#5CBDB7"/>
    <path d="M691.524,385.152 C692.844,391.744 698.992,411.072 763.996,405.796 C778.928,392.616 823.732,339.036 827.248,333.764 C830.756,328.492 800.092,314.916 796.496,315.32 C788.592,316.196 700.752,368.9 691.524,385.152" fill="#FFFFFE"/>
    <path d="M691.524,385.152 C692.844,391.744 698.992,411.072 763.996,405.796 C778.928,392.616 823.732,339.036 827.248,333.764 C830.756,328.492 800.092,314.916 796.496,315.32 C788.592,316.196 700.752,368.9 691.524,385.152 z M800.892,325.856 C797.38,326.74 720.952,386.472 711.288,399.648" fill-opacity="0" stroke="#6E5E4E" stroke-width="4"/>
    <g>
      <path d="M697.236,451.476 C694.6,454.992 688.448,465.532 695.476,474.312 C702.508,483.1 779.812,542.836 800.016,548.104 C820.216,553.376 836.028,537.564 836.028,537.564 C836.028,537.564 756.968,444.444 754.332,442.692 C751.696,440.936 701.628,447.084 697.236,451.476" fill="#FFFFFE"/>
      <path d="M697.236,451.476 C694.6,454.992 688.448,465.532 695.476,474.312 C702.508,483.1 779.812,542.836 800.016,548.104 C820.216,553.376 836.028,537.564 836.028,537.564 C836.028,537.564 756.968,444.444 754.332,442.692 C751.696,440.936 701.628,447.084 697.236,451.476 z" fill-opacity="0" stroke="#6E5E4E" stroke-width="4"/>
    </g>
    <path d="M578.868,422.712 C576.42,424.064 569.64,440.496 572.936,441.812 C576.228,443.132 596.652,443.132 599.288,440.496 C601.92,437.86 607.196,424.024 605.22,423.368 C603.244,422.712 584.796,419.416 578.868,422.712" fill="#4EC0E3"/>
    <path d="M578.868,422.712 C576.42,424.064 569.64,440.496 572.936,441.812 C576.228,443.132 596.652,443.132 599.288,440.496 C601.92,437.86 607.196,424.024 605.22,423.368 C603.244,422.712 584.796,419.416 578.868,422.712 z" fill-opacity="0" stroke="#6E5E4E" stroke-width="4"/>
    <path d="M626.296,422.052 C623.42,423.648 616.416,436.544 618.396,438.52 C620.372,440.496 640.796,439.836 644.084,436.544 C647.384,433.252 650.676,423.368 648.7,421.392 C646.728,419.416 632.232,418.756 626.296,422.052" fill="#4EC0E3"/>
    <path d="M626.296,422.052 C623.42,423.648 616.416,436.544 618.396,438.52 C620.372,440.496 640.796,439.836 644.084,436.544 C647.384,433.252 650.676,423.368 648.7,421.392 C646.728,419.416 632.232,418.756 626.296,422.052 z" fill-opacity="0" stroke="#6E5E4E" stroke-width="4"/>
    <path d="M667.804,418.092 C665.944,419.028 659.244,431.272 661.22,433.908 C663.196,436.544 683.616,434.568 684.936,432.588 C686.256,430.612 690.208,421.392 688.892,419.416 C687.572,417.436 670.44,416.78 667.804,418.092" fill="#4EC0E3"/>
    <path d="M667.804,418.092 C665.944,419.028 659.244,431.272 661.22,433.908 C663.196,436.544 683.616,434.568 684.936,432.588 C686.256,430.612 690.208,421.392 688.892,419.416 C687.572,417.436 670.44,416.78 667.804,418.092 z M449.736,582.804 L441.168,608.5 C441.168,608.5 480.7,604.548 479.384,590.712 C478.928,585.98 449.736,582.804 449.736,582.804 z" fill-opacity="0" stroke="#6E5E4E" stroke-width="4"/>
    <path d="M354.2,626.944 C354.2,626.944 391.756,632.22 439.192,615.084 C442.484,613.108 456.32,568.312 455.664,554.476 C455,540.64 400.98,514.944 365.404,514.284 C369.356,519.556 389.12,607.18 354.2,626.944" fill="#FFFFFE"/>
    <path d="M354.2,626.944 C354.2,626.944 391.756,632.22 439.192,615.084 C442.484,613.108 456.32,568.312 455.664,554.476 C455,540.64 400.98,514.944 365.404,514.284 C369.356,519.556 389.12,607.18 354.2,626.944 z" fill-opacity="0" stroke="#6E5E4E" stroke-width="4"/>
    <path d="M363.424,456.308 C346.296,466.852 399.004,570.944 607.196,701.392 C615.1,702.712 666.492,696.124 673.08,693.488 C679.664,690.852 691.524,678.992 666.492,673.728 C659.9,660.548 534.72,485.296 524.18,476.076 C513.64,466.852 380.556,428.636 363.424,456.308" fill="#FFFFFE"/>
    <path d="M363.424,456.308 C346.296,466.852 399.004,570.944 607.196,701.392 C615.1,702.712 666.492,696.124 673.08,693.488 C679.664,690.852 691.524,678.992 666.492,673.728 C659.9,660.548 534.72,485.296 524.18,476.076 C513.64,466.852 380.556,428.636 363.424,456.308 z" fill-opacity="0" stroke="#6E5E4E" stroke-width="4"/>
    <path d="M352.224,516.7 C341.684,511.428 306.408,513.128 290.736,550.08 C278.436,579.072 280.64,617.532 308.304,626.508 C340.804,637.048 359.48,604.172 366.276,587.852 C375.064,566.772 376.82,529.876 352.224,516.7" fill="#FFFFFE"/>
    <path d="M352.224,516.7 C341.684,511.428 306.408,513.128 290.736,550.08 C278.436,579.072 280.64,617.532 308.304,626.508 C340.804,637.048 359.48,604.172 366.276,587.852 C375.064,566.772 376.82,529.876 352.224,516.7 z" fill-opacity="0" stroke="#6E5E4E" stroke-width="4"/>
    <path d="M328.172,627.712 C348.612,623.084 361.008,600.5 366.276,587.852 C375.064,566.772 376.82,529.876 352.224,516.7 C350.144,515.656 347.088,514.892 343.412,514.608 L363.648,514.064 C363.648,514.064 415.144,525.592 391.756,592.248 C386.492,603.884 366.416,643.064 316.716,628.636 C316.716,628.636 326.372,628.728 328.172,627.712" fill="#96A7AC"/>
    <path d="M328.172,627.712 C348.612,623.084 361.008,600.5 366.276,587.852 C375.064,566.772 376.82,529.876 352.224,516.7 C350.144,515.656 347.088,514.892 343.412,514.608 L363.648,514.064 C363.648,514.064 415.144,525.592 391.756,592.248 C386.492,603.884 366.416,643.064 316.716,628.636 C316.716,628.636 326.372,628.728 328.172,627.712 z" fill-opacity="0" stroke="#6E5E4E" stroke-width="4"/>
    <path d="M304.488,555.916 L304.488,555.916 C297.672,571.976 296.932,589.148 302.152,600.592 C304.596,605.952 308.224,609.352 313.24,610.976 C333.936,617.688 346.588,596.26 352.488,582.104 C355.372,575.188 357.252,566.1 357.252,557.336 C357.252,545.804 354.532,535.368 344.32,530.756 C339.22,528.148 316.596,527.384 304.488,555.916" fill="#B8B3AF"/>
    <path d="M304.488,555.916 L304.488,555.916 C297.672,571.976 296.932,589.148 302.152,600.592 C304.596,605.952 308.224,609.352 313.24,610.976 C333.936,617.688 346.588,596.26 352.488,582.104 C355.372,575.188 357.252,566.1 357.252,557.336 C357.252,545.804 354.532,535.368 344.32,530.756 C339.22,528.148 316.596,527.384 304.488,555.916 z" fill-opacity="0" stroke="#6E5E4E" stroke-width="4"/>
    <path d="M140.072,269.096 L108.968,316.572 M117.156,223.256 L61.488,272.372" fill-opacity="0" stroke="#FFFFFE" stroke-width="4"/>
    <path d="M395.012,365.616 L440.908,365.616 L440.908,413.212 L395.012,413.212 z" fill="#4EC0E3"/>
    <path d="M402.08,455.868 C388.024,455.868 361.672,499.792 609.392,691.292 L402.08,455.868" fill="#C7E7F1"/>
    <path d="M410.86,478.708 C420.084,481.344 479.384,551.18 483.336,556.452" fill-opacity="0" stroke="#6E5E4E" stroke-width="4"/>
    <path d="M716.564,457.624 C697.236,462.9 727.096,494.524 804.404,541.956 L716.564,457.624" fill="#C7E7F1"/>
    <path d="M293.152,16.644 C280.852,32.46 258.008,176.52 291.392,188.82 L293.152,16.644" fill="#C7E7F1"/>
    <path d="M287.004,74.184 C287.004,84.728 290.956,129.524 290.956,129.524" fill-opacity="0" stroke="#6E5E4E" stroke-width="4"/>
    <path d="M542.236,77.136 C544.868,73.84 551.852,62.984 553.172,58.372 C554.488,53.76 549.22,48.492 539.336,57.056 C536.696,51.124 523.524,37.288 518.908,38.604 C514.296,39.924 517.592,45.856 518.252,47.832 C514.296,45.196 502.436,42.56 505.736,51.124 C501.12,49.808 494.532,54.416 499.144,62.324 C492.556,61.668 476.748,66.936 514.956,82.088 L532.084,82.748 L542.236,77.136" fill="#F9D8B2"/>
    <path d="M542.236,77.136 C544.868,73.84 551.852,62.984 553.172,58.372 C554.488,53.76 549.22,48.492 539.336,57.056 C536.696,51.124 523.524,37.288 518.908,38.604 C514.296,39.924 517.592,45.856 518.252,47.832 C514.296,45.196 502.436,42.56 505.736,51.124 C501.12,49.808 494.532,54.416 499.144,62.324 C492.556,61.668 476.748,66.936 514.956,82.088 L532.084,82.748 L542.236,77.136 z" fill-opacity="0" stroke="#6E5E4E" stroke-width="4"/>
    <path d="M522.864,117.668 C520.888,113.716 514.956,84.068 514.956,82.088 C514.956,80.112 538.016,74.252 543.944,74.912 C543.944,74.912 550.016,96.88 551.992,98.2 C553.968,99.516 568.984,164.444 568.32,169.056 C567.664,173.668 570.956,196.728 563.712,197.384 C556.464,198.044 522.864,117.668 522.864,117.668" fill="#FFF263"/>
    <path d="M522.864,117.668 C520.888,113.716 514.956,84.068 514.956,82.088 C514.956,80.112 538.016,74.252 543.944,74.912 C543.944,74.912 550.016,96.88 551.992,98.2 C553.968,99.516 568.984,164.444 568.32,169.056 C567.664,173.668 570.956,196.728 563.712,197.384 C556.464,198.044 522.864,117.668 522.864,117.668 z M518.252,369.344 L524.18,376.584 M505.736,372.632 C505.736,372.632 512.32,383.18 514.296,383.18 M499.144,62.324 L508.368,67.596" fill-opacity="0" stroke="#6E5E4E" stroke-width="4"/>
    <path d="M704.044,168.396 C710.212,163.772 743.576,163.128 751.476,166.42 C754.112,171.032 752.136,187.504 746.208,194.752 C740.28,201.996 694.82,214.516 685.592,208.584 C676.372,202.66 675.056,190.14 679.008,184.208 C682.96,178.28 701.408,170.376 704.044,168.396" fill="#FFF263"/>
    <path d="M704.044,168.396 C710.212,163.772 743.576,163.128 751.476,166.42 C754.112,171.032 752.136,187.504 746.208,194.752 C740.28,201.996 694.82,214.516 685.592,208.584 C676.372,202.66 675.056,190.14 679.008,184.208 C682.96,178.28 701.408,170.376 704.044,168.396 z" fill-opacity="0" stroke="#6E5E4E" stroke-width="4"/>
    <path d="M750.82,168.396 C750.82,164.444 746.208,148.632 752.796,149.292 C759.384,149.952 763.996,157.196 761.36,167.08 C767.948,166.42 785.08,172.348 784.42,176.304 C783.76,180.256 777.828,178.28 773.22,179.6 C777.828,181.576 785.736,185.524 773.88,188.16 C777.172,192.112 780.468,194.092 777.828,196.728 C775.196,199.364 766.632,197.384 766.632,197.384 C770.584,199.364 778.492,202.66 773.22,203.976 C767.948,205.292 760.704,202.66 757.408,198.704 L746.868,192.112 L750.82,168.396" fill="#F9D8B2"/>
    <path d="M750.82,168.396 C750.82,164.444 746.208,148.632 752.796,149.292 C759.384,149.952 763.996,157.196 761.36,167.08 C767.948,166.42 785.08,172.348 784.42,176.304 C783.76,180.256 777.828,178.28 773.22,179.6 C777.828,181.576 785.736,185.524 773.88,188.16 C777.172,192.112 780.468,194.092 777.828,196.728 C775.196,199.364 766.632,197.384 766.632,197.384 C770.584,199.364 778.492,202.66 773.22,203.976 C767.948,205.292 760.704,202.66 757.408,198.704 L746.868,192.112 L750.82,168.396 z" fill-opacity="0" stroke="#6E5E4E" stroke-width="4"/>
    <path d="M315.576,289.276 C315.576,289.276 298.4,310.332 295.076,320.304 C291.752,330.28 300.616,349.116 303.94,357.428 C307.264,365.74 315.012,386.92 320.56,394.552 C324.992,400.648 336.008,405.276 342.172,407.848 C348.82,410.616 382.064,416.156 387.604,416.716 C393.144,417.272 413.092,376.272 414.2,374.052 C416.972,376.82 428.056,387.344 432.484,389.008 C436.916,390.672 451.328,390.116 456.312,385.132 C461.296,380.148 448.556,350.224 448.556,344.128 C448.556,338.036 419.74,309.228 415.312,306.452 C410.876,303.684 357.688,292.6 353.252,290.94 C348.824,289.276 320.008,285.4 315.576,289.276" fill="#8FD1E9"/>
    <path d="M315.576,289.276 C315.576,289.276 298.4,310.332 295.076,320.304 C291.752,330.28 300.616,349.116 303.94,357.428 C307.264,365.74 315.012,386.92 320.56,394.552 C324.992,400.648 336.008,405.276 342.172,407.848 C348.82,410.616 382.064,416.156 387.604,416.716 C393.144,417.272 413.092,376.272 414.2,374.052 C416.972,376.82 428.056,387.344 432.484,389.008 C436.916,390.672 451.328,390.116 456.312,385.132 C461.296,380.148 448.556,350.224 448.556,344.128 C448.556,338.036 419.74,309.228 415.312,306.452 C410.876,303.684 357.688,292.6 353.252,290.94 C348.824,289.276 320.008,285.4 315.576,289.276 z" fill-opacity="0" stroke="#6E5E4E" stroke-width="4"/>
    <path d="M336.632,302.576 C336.58,302.808 336.524,303.068 336.46,303.348 C335.224,309.044 332.276,323.84 333.86,328.064 C335.524,330.28 338.296,333.052 338.296,333.052 C340.508,331.94 352.7,331.388 352.7,331.388 C355.472,329.172 365.996,314.764 368.212,311.992 L336.632,302.576" fill="#F4BC8B"/>
    <path d="M336.632,302.576 C336.58,302.808 336.524,303.068 336.46,303.348 C335.224,309.044 332.276,323.84 333.86,328.064 C335.524,330.28 338.296,333.052 338.296,333.052 C340.508,331.94 352.7,331.388 352.7,331.388 C355.472,329.172 365.996,314.764 368.212,311.992 L336.632,302.576 z M368.212,311.992 C365.996,314.764 355.472,329.172 352.7,331.388 C357.684,330.28 370.428,335.82 373.752,344.68 C380.956,338.588 390.376,319.752 392.04,309.224 L368.212,311.992 z M336.46,303.348 C335.224,309.044 332.276,323.84 333.86,328.064 C331.088,322.524 323.332,311.992 308.924,321.972 C311.696,316.984 320.008,297.588 323.888,294.816 C323.888,294.816 333.52,298.58 336.46,303.348 z" fill-opacity="0" stroke="#6E5E4E" stroke-width="4"/>
    <path d="M236.9,325.292 C239.668,326.4 242.992,333.052 245.208,335.264 C247.424,337.484 252.412,344.68 261.276,339.144 C261.276,345.24 260.724,372.94 281.776,376.82 C302.828,380.7 307.212,356.472 307.82,348.564 C308.372,341.36 304.492,318.644 294.524,311.44 C297.292,307.56 304.492,289.276 297.292,283.184 C300.616,276.532 310.036,262.684 312.808,259.356 C315.576,256.036 312.804,243.292 302.828,243.844 C292.856,244.4 276.24,262.128 278.456,274.32 C275.684,273.764 272.36,274.32 272.36,274.32 C270.696,271.548 252.412,253.816 244.1,251.6 C235.792,249.384 210.304,246.612 213.072,264.344 C215.288,267.668 222.492,269.884 227.476,270.992 C232.464,272.1 239.668,277.088 241.332,278.196 C236.9,277.644 206.42,274.872 206.42,286.508 C206.42,298.144 228.032,292.048 234.128,294.264 C231.356,294.264 205.868,294.264 208.64,307.008 C209.748,313.656 230.248,311.996 231.912,311.44 C227.476,313.1 213.072,311.992 214.736,319.2 C216.4,326.4 221.936,328.06 236.9,325.292" fill="#F4BC8B"/>
    <path d="M236.9,325.292 C239.668,326.4 242.992,333.052 245.208,335.264 C247.424,337.484 252.412,344.68 261.276,339.144 C261.276,345.24 260.724,372.94 281.776,376.82 C302.828,380.7 307.212,356.472 307.82,348.564 C308.372,341.36 304.492,318.644 294.524,311.44 C297.292,307.56 304.492,289.276 297.292,283.184 C300.616,276.532 310.036,262.684 312.808,259.356 C315.576,256.036 312.804,243.292 302.828,243.844 C292.856,244.4 276.24,262.128 278.456,274.32 C275.684,273.764 272.36,274.32 272.36,274.32 C270.696,271.548 252.412,253.816 244.1,251.6 C235.792,249.384 210.304,246.612 213.072,264.344 C215.288,267.668 222.492,269.884 227.476,270.992 C232.464,272.1 239.668,277.088 241.332,278.196 C236.9,277.644 206.42,274.872 206.42,286.508 C206.42,298.144 228.032,292.048 234.128,294.264 C231.356,294.264 205.868,294.264 208.64,307.008 C209.748,313.656 230.248,311.996 231.912,311.44 C227.476,313.1 213.072,311.992 214.736,319.2 C216.4,326.4 221.936,328.06 236.9,325.292 z M272.36,274.32 C270.696,275.424 259.616,285.952 260.724,295.372 M294.524,311.44 C294.524,311.44 291.2,314.212 288.984,316.428 M402.568,362.416 L414.2,374.052" fill-opacity="0" stroke="#6E5E4E" stroke-width="4"/>
    <path d="M452.96,385.936 C450.056,385.108 436.756,381.368 421.796,402.976 C406.836,424.584 416.396,427.08 416.396,427.08 C416.396,427.08 491.196,448.268 497.428,449.52 C503.664,450.764 520.7,457 524.024,455.34 C527.352,453.672 544.384,431.236 532.336,418.764 C520.28,406.3 458.368,385.108 452.96,385.936" fill="#F0A558"/>
    <path d="M452.96,385.936 C450.056,385.108 436.756,381.368 421.796,402.976 C406.836,424.584 416.396,427.08 416.396,427.08 C416.396,427.08 491.196,448.268 497.428,449.52 C503.664,450.764 520.7,457 524.024,455.34 C527.352,453.672 544.384,431.236 532.336,418.764 C520.28,406.3 458.368,385.108 452.96,385.936 z" fill-opacity="0" stroke="#6E5E4E" stroke-width="4"/>
    <path d="M460.44,394.252 C459.196,400.072 460.444,419.18 469.584,421.256 C478.728,423.344 494.52,414.196 495.764,413.368 L460.44,394.252" fill="#F9D8B2"/>
    <path d="M460.44,394.252 C459.196,400.072 460.444,419.18 469.584,421.256 C478.728,423.344 494.52,414.196 495.764,413.368 L460.44,394.252 z" fill-opacity="0" stroke="#6E5E4E" stroke-width="4"/>
    <path d="M425.952,417.524 C428.86,411.288 425.952,397.58 400.604,396.328 C375.252,395.084 360.772,398.252 362.788,413.368 C363.62,419.596 393.952,424.172 396.448,424.172 C396.86,429.156 413.484,429.572 417.64,426.252 C418.472,432.072 430.936,436.22 433.848,434.144 C436.756,432.072 436.756,427.916 434.264,425.416 C431.768,422.92 426.78,418.764 425.952,417.524" fill="#F9D8B2"/>
    <path d="M425.952,417.524 C428.86,411.288 425.952,397.58 400.604,396.328 C375.252,395.084 360.772,398.252 362.788,413.368 C363.62,419.596 393.952,424.172 396.448,424.172 C396.86,429.156 413.484,429.572 417.64,426.252 C418.472,432.072 430.936,436.22 433.848,434.144 C436.756,432.072 436.756,427.916 434.264,425.416 C431.768,422.92 426.78,418.764 425.952,417.524 z M405.176,404.64 C402.68,406.72 395.2,418.356 396.448,424.172 M391.044,403.396 C388.968,404.64 380.656,412.532 383.98,421.68 M378.992,401.732 C375.252,403.396 369.436,412.116 372.344,419.596 M422.212,412.952 C420.964,414.2 416.812,423.752 416.396,425.832" fill-opacity="0" stroke="#6E5E4E" stroke-width="4"/>
    <path d="M483.712,429.988 C488.704,426.252 515.048,419.692 530.256,445.78 C533.164,450.764 532.688,459.992 519.452,458.664 C515.296,458.252 497.844,454.92 495.352,453.26 C492.86,456.584 481.636,454.508 479.976,446.196 C476.236,446.196 467.92,448.688 467.092,444.116 C466.256,439.548 472.08,429.572 483.712,429.988" fill="#F9D8B2"/>
    <path d="M483.712,429.988 C488.704,426.252 515.048,419.692 530.256,445.78 C533.164,450.764 532.688,459.992 519.452,458.664 C515.296,458.252 497.844,454.92 495.352,453.26 C492.86,456.584 481.636,454.508 479.976,446.196 C476.236,446.196 467.92,448.688 467.092,444.116 C466.256,439.548 472.08,429.572 483.712,429.988 z M483.712,429.988 C482.884,431.24 477.896,440.376 480.392,447.444 M498.256,432.9 C495.352,436.22 493.688,450.352 495.352,453.26 M511.14,438.716 C509.9,440.376 506.984,453.672 507.404,456.584 M521.112,444.948 C521.112,444.948 518.208,457 518.208,458.252" fill-opacity="0" stroke="#6E5E4E" stroke-width="4"/>
    <path d="M602.804,352.212 C612.024,348.7 629.592,354.412 619.928,369.344 C610.268,384.276 596.648,386.032 592.256,384.716" fill="#F9D8B2"/>
    <path d="M602.804,352.212 C612.024,348.7 629.592,354.412 619.928,369.344 C610.268,384.276 596.648,386.032 592.256,384.716" fill-opacity="0" stroke="#6E5E4E" stroke-width="4"/>
    <path d="M524.18,183.552 C531.428,176.304 573.592,154.564 602.584,162.468 C631.572,170.376 648.044,188.82 653.312,192.776 C665.172,198.704 695.476,201.996 714.584,199.364 C733.692,196.728 742.916,190.796 746.868,192.112 C750.82,193.432 759.384,202.66 746.208,223.74 C733.032,244.824 720.516,255.364 715.904,258 C727.1,256.68 748.188,254.048 754.112,252.728 C760.044,251.412 761.36,256.68 758.064,265.248 C754.772,273.812 741.592,303.46 696.132,323.224 C698.772,324.544 709.312,323.224 709.312,323.224 C712.608,325.2 716.564,327.176 707.996,337.06 C699.428,346.94 633.548,396.352 588.752,387.132 C543.944,377.908 462.252,246.796 472.788,224.4 C483.336,201.996 514.296,184.868 524.18,183.552" fill="#967A5F"/>
    <path d="M524.18,183.552 C531.428,176.304 573.592,154.564 602.584,162.468 C631.572,170.376 648.044,188.82 653.312,192.776 C665.172,198.704 695.476,201.996 714.584,199.364 C733.692,196.728 742.916,190.796 746.868,192.112 C750.82,193.432 759.384,202.66 746.208,223.74 C733.032,244.824 720.516,255.364 715.904,258 C727.1,256.68 748.188,254.048 754.112,252.728 C760.044,251.412 761.36,256.68 758.064,265.248 C754.772,273.812 741.592,303.46 696.132,323.224 C698.772,324.544 709.312,323.224 709.312,323.224 C712.608,325.2 716.564,327.176 707.996,337.06 C699.428,346.94 633.548,396.352 588.752,387.132 C543.944,377.908 462.252,246.796 472.788,224.4 C483.336,201.996 514.296,184.868 524.18,183.552 z" fill-opacity="0" stroke="#6E5E4E" stroke-width="4"/>
    <path d="M635.744,299.504 C629.156,306.976 611.584,335.084 607.196,347.82 C602.804,360.556 607.196,389.108 584.796,404.044 C562.392,418.972 524.008,434.78 481.136,412.824 C472.132,408.212 439.192,392.404 430.624,344.964 C422.064,297.528 455.664,259.976 466.864,249.436 C478.064,238.892 523.96,232.304 533.844,229.668 C543.728,227.032 651.772,254.704 635.744,299.504" fill="#F9D8B2"/>
    <path d="M635.744,299.504 C629.156,306.976 611.584,335.084 607.196,347.82 C602.804,360.556 607.196,389.108 584.796,404.044 C562.392,418.972 524.008,434.78 481.136,412.824 C472.132,408.212 439.192,392.404 430.624,344.964 C422.064,297.528 455.664,259.976 466.864,249.436 C478.064,238.892 523.96,232.304 533.844,229.668 C543.728,227.032 651.772,254.704 635.744,299.504 z" fill-opacity="0" stroke="#6E5E4E" stroke-width="4"/>
    <path d="M623.204,264.632 C634.392,274.536 640.476,286.272 635.744,299.504 C629.156,306.976 611.584,335.084 607.196,347.82 C602.804,360.556 607.196,389.108 584.796,404.044 C562.392,418.972 524.008,434.78 481.136,412.824 C478.464,411.46 473.688,409.104 468.072,405.236 C496.944,413.704 526.812,426.004 560.196,403.164 C593.58,380.32 591.82,357.484 595.336,343.428 C598.852,329.372 628.716,287.208 628.716,287.208 L621.688,260.852" fill="#FFFFFE"/>
    <path d="M635.744,299.504 C629.156,306.976 611.584,335.084 607.196,347.82 C602.804,360.556 607.196,389.108 584.796,404.044 C562.392,418.972 524.008,434.78 481.136,412.824 C472.132,408.212 439.192,392.404 430.624,344.964 C422.064,297.528 455.664,259.976 466.864,249.436 C478.064,238.892 523.96,232.304 533.844,229.668 C543.728,227.032 651.772,254.704 635.744,299.504 z" fill-opacity="0" stroke="#6E5E4E" stroke-width="4"/>
    <path d="M467.524,288.964 C462.252,298.188 441.828,354.848 482.016,364.072 C482.672,367.368 475.428,379.228 453.688,374.612 C431.944,370 403.612,345.62 417.448,307.412 L465.548,283.696 C465.548,283.696 471.476,279.084 467.524,288.964" fill="#967A5F"/>
    <path d="M467.524,288.964 C462.252,298.188 441.828,354.848 482.016,364.072 C482.672,367.368 475.428,379.228 453.688,374.612 C431.944,370 403.612,345.62 417.448,307.412 L465.548,283.696 C465.548,283.696 471.476,279.084 467.524,288.964 z" fill-opacity="0" stroke="#6E5E4E" stroke-width="4"/>
    <path d="M314.012,147.316 C309.4,142.704 295.564,134.796 288.32,145.34 C281.072,155.88 273.164,182.236 290.956,196.728 L314.012,147.316" fill="#F4BC8B"/>
    <path d="M314.012,147.316 C309.4,142.704 295.564,134.796 288.32,145.34 C281.072,155.88 273.164,182.236 290.956,196.728 L314.012,147.316 z" fill-opacity="0" stroke="#6E5E4E" stroke-width="4" stroke-linejoin="bevel"/>
    <path d="M530.108,180.916 C532.084,200.68 507.712,218.468 504.416,218.468 C501.12,218.468 462.252,229.012 457.64,226.376 C453.028,223.74 333.12,151.268 327.188,132.82 C321.26,114.372 342.34,98.56 346.296,96.584 C345.64,82.088 338.392,71.548 373.968,69.576 C375.94,61.668 377.26,21.48 447.756,37.288 C449.076,39.924 426.016,47.172 431.284,71.548 C443.144,68.256 471.256,63.7 491.9,79.456 C504.416,89.008 506.396,93.292 511,94.936 C507.052,98.232 500.46,97.904 500.46,103.172 C514.296,107.124 535.38,106.464 538.016,111.736 C540.648,117.008 528.792,123.596 529.452,128.868 C530.108,134.136 545.92,130.188 551.196,132.82 C556.464,135.456 597.312,138.748 530.108,180.916" fill="#8A715C"/>
    <path d="M530.108,180.916 C532.084,200.68 507.712,218.468 504.416,218.468 C501.12,218.468 462.252,229.012 457.64,226.376 C453.028,223.74 333.12,151.268 327.188,132.82 C321.26,114.372 342.34,98.56 346.296,96.584 C345.64,82.088 338.392,71.548 373.968,69.576 C375.94,61.668 377.26,21.48 447.756,37.288 C449.076,39.924 426.016,47.172 431.284,71.548 C443.144,68.256 471.256,63.7 491.9,79.456 C504.416,89.008 506.396,93.292 511,94.936 C507.052,98.232 500.46,97.904 500.46,103.172 C514.296,107.124 535.38,106.464 538.016,111.736 C540.648,117.008 528.792,123.596 529.452,128.868 C530.108,134.136 545.92,130.188 551.196,132.82 C556.464,135.456 597.312,138.748 530.108,180.916 z" fill-opacity="0" stroke="#6E5E4E" stroke-width="4"/>
    <path d="M362.108,101.196 C345.64,111.08 263.94,177.62 279.096,244.164 C294.248,310.704 413.632,351.656 474.108,279.084 C483.992,267.224 507.052,209.908 513.64,192.112 C520.228,174.324 517.592,149.952 513.64,141.384 C509.688,132.82 434.58,82.748 427.992,80.772 C421.404,78.796 362.108,101.196 362.108,101.196" fill="#F4BC8B"/>
    <path d="M362.108,101.196 C345.64,111.08 263.94,177.62 279.096,244.164 C294.248,310.704 413.632,351.656 474.108,279.084 C483.992,267.224 507.052,209.908 513.64,192.112 C520.228,174.324 517.592,149.952 513.64,141.384 C509.688,132.82 434.58,82.748 427.992,80.772 C421.404,78.796 362.108,101.196 362.108,101.196 z" fill-opacity="0" stroke="#6E5E4E" stroke-width="4"/>
    <path d="M501.196,129.88 C502.108,121.292 512.728,139.404 513.64,141.384 C517.592,149.952 520.228,174.324 513.64,192.112 C507.052,209.908 483.992,267.224 474.108,279.084 C434.108,327.08 368.344,325.424 324.008,299.544 C379.236,310.048 479.384,334.644 501.196,129.88" fill="#FFFFFE"/>
    <path d="M362.108,101.196 C345.64,111.08 263.94,177.62 279.096,244.164 C294.248,310.704 413.632,351.656 474.108,279.084 C483.992,267.224 507.052,209.908 513.64,192.112 C520.228,174.324 517.592,149.952 513.64,141.384 C509.688,132.82 434.58,82.748 427.992,80.772 C421.404,78.796 362.108,101.196 362.108,101.196 z M319.94,214.516 C317.308,224.4 317.308,248.116 350.908,262.612 C384.508,277.104 420.084,279.74 442.484,262.612" fill-opacity="0" stroke="#6E5E4E" stroke-width="4"/>
    <path d="M504.416,218.468 C503.1,219.128 495.852,219.128 494.532,216.492 C512.32,200.02 505.736,188.82 504.416,182.896 C472.788,172.348 461.588,148.632 462.908,140.724 C445.78,130.844 422.064,112.396 422.72,94.608 C414.156,97.244 410.2,108.444 410.2,115.032 C410.2,121.62 411.52,123.596 407.568,124.256 C390.436,122.28 380.556,101.856 381.872,94.608 C366.72,103.172 368.04,115.032 365.404,118.988 C350.908,113.716 346.296,99.22 346.296,96.584 C346.296,96.584 355.456,78.084 359.08,77.176 C362.708,76.272 391.708,72.648 391.708,72.648 L419.804,73.552 L451.072,78.988 C451.072,78.988 500.46,117.056 501.82,117.96 C503.188,118.864 529.468,146.056 529.012,148.772 C528.56,151.492 518.588,199.524 517.68,200.888 C516.78,202.244 510.18,213.396 504.416,218.468" fill="#8A715C"/>
    <path d="M346.296,96.584 C346.296,99.22 350.908,113.716 365.404,118.988 C368.04,115.032 366.72,103.172 381.872,94.608 C380.556,101.856 390.436,122.28 407.568,124.256 C411.52,123.596 410.2,121.62 410.2,115.032 C410.2,108.444 414.156,97.244 422.72,94.608 C422.064,112.396 445.78,130.844 462.908,140.724 C461.588,148.632 472.788,172.348 504.416,182.896 C505.736,188.82 512.32,200.02 494.532,216.492 C495.852,219.128 503.1,219.128 504.416,218.468 M457.64,110.42 C458.956,118.988 462.908,134.796 466.864,139.408" fill-opacity="0" stroke="#6E5E4E" stroke-width="4"/>
    <path d="M370.172,155.264 C365.76,161.28 361.232,165.46 360.06,164.6 C358.884,163.74 361.508,158.164 365.916,152.148 C370.324,146.132 374.852,141.952 376.024,142.816 C377.2,143.672 374.58,149.244 370.172,155.264" fill="#6E5E4E"/>
    <path d="M370.172,155.264 C365.76,161.28 361.232,165.46 360.06,164.6 C358.884,163.74 361.508,158.164 365.916,152.148 C370.324,146.132 374.852,141.952 376.024,142.816 C377.2,143.672 374.58,149.244 370.172,155.264 z" fill-opacity="0" stroke="#6E5E4E" stroke-width="4"/>
    <path d="M447.252,192.82 C442.844,198.832 438.312,203.016 437.14,202.156 C435.968,201.292 438.588,195.72 443,189.704 C447.408,183.684 451.936,179.504 453.108,180.364 C454.284,181.228 451.66,186.8 447.252,192.82" fill="#6E5E4E"/>
    <path d="M447.252,192.82 C442.844,198.832 438.312,203.016 437.14,202.156 C435.968,201.292 438.588,195.72 443,189.704 C447.408,183.684 451.936,179.504 453.108,180.364 C454.284,181.228 451.66,186.8 447.252,192.82 z M549.876,328.492 C547.24,331.132 541.312,341.012 553.172,342.328 C553.172,342.328 545.92,348.26 543.944,349.576" fill-opacity="0" stroke="#6E5E4E" stroke-width="4"/>
    <path d="M530.344,303.564 C527.22,308.476 523.436,311.664 521.908,310.684 C520.372,309.708 521.664,304.936 524.788,300.024 C527.916,295.112 531.696,291.924 533.232,292.904 C534.764,293.876 533.468,298.652 530.344,303.564" fill="#6E5E4E"/>
    <path d="M530.344,303.564 C527.22,308.476 523.436,311.664 521.908,310.684 C520.372,309.708 521.664,304.936 524.788,300.024 C527.916,295.112 531.696,291.924 533.232,292.904 C534.764,293.876 533.468,298.652 530.344,303.564 z" fill-opacity="0" stroke="#6E5E4E" stroke-width="4"/>
    <path d="M582.444,329.176 C579.46,334.176 575.78,337.476 574.216,336.54 C572.652,335.608 573.804,330.8 576.784,325.804 C579.764,320.8 583.448,317.504 585.016,318.432 C586.58,319.364 585.42,324.176 582.444,329.176" fill="#6E5E4E"/>
    <path d="M582.444,329.176 C579.46,334.176 575.78,337.476 574.216,336.54 C572.652,335.608 573.804,330.8 576.784,325.804 C579.764,320.8 583.448,317.504 585.016,318.432 C586.58,319.364 585.42,324.176 582.444,329.176 z" fill-opacity="0" stroke="#6E5E4E" stroke-width="4"/>
    <path d="M631.572,43.876 C624.324,40.584 605.876,31.36 590.064,40.584 C574.252,49.808 578.204,60.348 578.868,66.936 C579.524,73.528 621.688,84.068 623.664,84.068 C625.64,84.068 674.4,111.736 674.4,111.736 C674.4,111.736 708.656,160.492 714.584,160.492 C720.516,160.492 733.032,165.104 742.256,145.996 C748.844,144.676 752.136,140.724 753.452,138.088 C749.5,137.432 741.592,136.116 740.936,130.188 C740.28,124.256 751.476,101.856 713.264,76.82 C711.288,70.232 704.044,51.124 686.256,49.808 C682.3,44.536 652.652,28.068 631.572,43.876" fill="#A1835E"/>
    <path d="M631.572,43.876 C624.324,40.584 605.876,31.36 590.064,40.584 C574.252,49.808 578.204,60.348 578.868,66.936 C579.524,73.528 621.688,84.068 623.664,84.068 C625.64,84.068 674.4,111.736 674.4,111.736 C674.4,111.736 708.656,160.492 714.584,160.492 C720.516,160.492 733.032,165.104 742.256,145.996 C748.844,144.676 752.136,140.724 753.452,138.088 C749.5,137.432 741.592,136.116 740.936,130.188 C740.28,124.256 751.476,101.856 713.264,76.82 C711.288,70.232 704.044,51.124 686.256,49.808 C682.3,44.536 652.652,28.068 631.572,43.876 z" fill-opacity="0" stroke="#6E5E4E" stroke-width="4"/>
    <path d="M532.084,374.612 C528.792,372.632 511.664,354.188 505.736,344.964 C505.736,344.964 475.72,354.984 491.24,373.952 C503.1,388.444 526.16,378.564 532.084,374.612" fill="#E16049"/>
    <path d="M662.54,61.008 C653.968,56.396 608.516,41.244 579.524,62.324 C550.532,83.408 507.052,127.552 585.452,184.868 C663.852,242.188 701.408,188.82 709.312,177.62 C717.22,166.42 740.28,96.584 670.44,64.304 L662.54,61.008" fill="#F9D8B2"/>
    <path d="M662.54,61.008 C653.968,56.396 608.516,41.244 579.524,62.324 C550.532,83.408 507.052,127.552 585.452,184.868 C663.852,242.188 701.408,188.82 709.312,177.62 C717.22,166.42 740.28,96.584 670.44,64.304 L662.54,61.008 z" fill-opacity="0" stroke="#6E5E4E" stroke-width="4"/>
    <path d="M701.148,86.356 C731.984,121.228 715.704,168.568 709.312,177.62 C702.092,187.844 670.176,233.204 605.028,197.432 C648.044,199.364 720.868,189.444 701.148,86.356" fill="#FFFFFE"/>
    <path d="M662.54,61.008 C653.968,56.396 608.516,41.244 579.524,62.324 C550.532,83.408 507.052,127.552 585.452,184.868 C663.852,242.188 701.408,188.82 709.312,177.62 C717.22,166.42 740.28,96.584 670.44,64.304 L662.54,61.008 z" fill-opacity="0" stroke="#6E5E4E" stroke-width="4"/>
    <path d="M568.984,74.184 C568.32,68.256 559.756,59.028 551.196,64.304 C542.624,69.576 541.968,85.384 549.876,92.632" fill="#F9D8B2"/>
    <path d="M568.984,74.184 C568.32,68.256 559.756,59.028 551.196,64.304 C542.624,69.576 541.968,85.384 549.876,92.632" fill-opacity="0" stroke="#6E5E4E" stroke-width="4"/>
    <path d="M712.608,166.42 C717.88,164.444 733.032,174.324 723.148,185.524 C713.264,196.728 698.772,193.432 698.112,189.48" fill="#F9D8B2"/>
    <path d="M712.608,166.42 C717.88,164.444 733.032,174.324 723.148,185.524 C713.264,196.728 698.772,193.432 698.112,189.48" fill-opacity="0" stroke="#6E5E4E" stroke-width="4"/>
    <path d="M674.4,54.416 C665.828,53.76 648.044,64.304 655.288,85.384 C661.876,81.432 673.736,69.576 693.5,74.844" fill="#A1835E"/>
    <path d="M674.4,54.416 C665.828,53.76 648.044,64.304 655.288,85.384 C661.876,81.432 673.736,69.576 693.5,74.844" fill-opacity="0" stroke="#6E5E4E" stroke-width="4"/>
    <path d="M605.656,93.424 C602.36,97.312 598.68,99.604 597.428,98.544 C596.18,97.484 597.844,93.476 601.132,89.592 C604.428,85.708 608.108,83.416 609.36,84.476 C610.608,85.536 608.948,89.54 605.656,93.424" fill="#6E5E4E"/>
    <path d="M605.656,93.424 C602.36,97.312 598.68,99.604 597.428,98.544 C596.18,97.484 597.844,93.476 601.132,89.592 C604.428,85.708 608.108,83.416 609.36,84.476 C610.608,85.536 608.948,89.54 605.656,93.424 z" fill-opacity="0" stroke="#6E5E4E" stroke-width="4"/>
    <path d="M672.2,132.296 C668.908,136.184 665.22,138.476 663.968,137.416 C662.724,136.356 664.384,132.348 667.676,128.464 C670.968,124.58 674.656,122.288 675.904,123.344 C677.152,124.404 675.492,128.412 672.2,132.296" fill="#6E5E4E"/>
    <path d="M672.2,132.296 C668.908,136.184 665.22,138.476 663.968,137.416 C662.724,136.356 664.384,132.348 667.676,128.464 C670.968,124.58 674.656,122.288 675.904,123.344 C677.152,124.404 675.492,128.412 672.2,132.296 z M630.252,111.736 C630.252,112.396 636.184,113.056 635.524,117.008 M580.18,112.396 C577.548,119.644 592.7,169.716 667.148,163.784" fill-opacity="0" stroke="#6E5E4E" stroke-width="4"/>
    <path d="M515.42,231.248 C515.42,228.076 516.78,216.748 519.948,214.932 C523.124,213.12 563.452,209.496 569.796,210.4 C576.14,211.312 620.548,223.544 626.44,228.98 C632.328,234.416 660.424,251.184 667.676,257.984 C674.924,264.78 688.232,300.164 688.232,300.164 C623.664,316.636 615.756,292.916 613.124,284.352 C608.516,285.012 596.652,283.032 588.752,280.4 C580.844,277.764 569.64,268.54 565.688,260.636 C564.368,263.268 567.004,271.836 567.004,275.788 C514.296,261.296 516.532,242.904 515.872,231.7" fill="#967A5F"/>
    <path d="M613.124,284.352 C617.736,283.696 627.616,283.696 641.452,279.74 C641.452,279.74 643.428,273.812 633.548,273.812 C625.836,273.812 599.944,263.928 596.652,243.5 M518.252,232.304 C518.908,243.5 514.296,261.296 567.004,275.788 C567.004,271.836 564.368,263.268 565.688,260.636 C569.64,268.54 580.844,277.764 588.752,280.4 C596.652,283.032 608.516,285.012 613.124,284.352 C615.756,292.916 623.664,316.636 688.232,300.164" fill-opacity="0" stroke="#6E5E4E" stroke-width="4"/>
    <path d="M499.804,221.104 C502.436,220.444 524.18,221.104 512.98,245.484 C501.78,269.856 483.336,271.176 477.408,267.88" fill="#F4BC8B"/>
    <path d="M499.804,221.104 C502.436,220.444 524.18,221.104 512.98,245.484 C501.78,269.856 483.336,271.176 477.408,267.88" fill-opacity="0" stroke="#6E5E4E" stroke-width="4" stroke-linejoin="bevel"/>
    <path d="M297.292,283.184 C300.616,276.532 310.036,262.684 312.808,259.356 C315.576,256.036 312.804,243.292 302.828,243.844 C292.856,244.4 276.24,262.128 278.456,274.32" fill="#F4BC8B"/>
    <path d="M297.292,283.184 C300.616,276.532 310.036,262.684 312.808,259.356 C315.576,256.036 312.804,243.292 302.828,243.844 C292.856,244.4 276.24,262.128 278.456,274.32" fill-opacity="0" stroke="#6E5E4E" stroke-width="4"/>
    <path d="M338.72,188.756 C334.78,194.876 326.132,196.324 319.4,191.996 C312.668,187.668 310.404,179.192 314.34,173.072 C318.276,166.952 326.928,165.504 333.66,169.836 C340.392,174.168 342.656,182.636 338.72,188.756" fill="#EEA28C"/>
    <path d="M451.968,245.532 C447.968,251.616 439.304,252.984 432.616,248.584 C425.924,244.196 423.744,235.7 427.736,229.62 C431.732,223.536 440.396,222.168 447.084,226.564 C453.772,230.956 455.956,239.448 451.968,245.532" fill="#EEA28C"/>
    <path d="M507.312,327.228 C503.312,333.308 494.648,334.676 487.956,330.284 C481.268,325.892 479.084,317.396 483.08,311.312 C487.076,305.232 495.74,303.864 502.424,308.26 C509.116,312.652 511.304,321.144 507.312,327.228" fill="#EEA28C"/>
    <path d="M585.052,370.712 C581.056,376.792 572.392,378.164 565.7,373.764 C559.012,369.376 556.824,360.884 560.816,354.796 C564.816,348.716 573.48,347.344 580.164,351.744 C586.86,356.132 589.044,364.624 585.052,370.712" fill="#EEA28C"/>
    <path d="M691.78,166.472 C687.784,172.556 679.116,173.924 672.428,169.524 C665.744,165.136 663.556,156.64 667.548,150.56 C671.548,144.476 680.212,143.108 686.9,147.504 C693.588,151.896 695.772,160.388 691.78,166.472" fill="#EEA28C"/>
    <path d="M587.688,111.132 C583.688,117.212 575.024,118.58 568.336,114.184 C561.648,109.792 559.46,101.3 563.452,95.216 C567.452,89.132 576.116,87.764 582.804,92.16 C589.492,96.552 591.68,105.048 587.688,111.132" fill="#EEA28C"/>
    <path d="M409.584,206.136 C409.584,206.136 428.448,233.948 382.752,232.744 C379.5,232.656 372.808,231.204 372.808,231.204 C372.808,231.204 406.284,219.164 409.584,206.136" fill="#FFFFFE"/>
    <path d="M404.272,165.104 C400.98,170.376 396.368,182.896 388.46,186.184 C380.556,189.48 352.884,196.068 350.908,205.952 C348.928,215.832 352.884,227.032 372.652,232.304 C392.416,237.576 412.84,229.012 412.84,221.764" fill-opacity="0" stroke="#6E5E4E" stroke-width="4"/>
  </g>
</svg>
