<?xml version="1.0"?>
<svg xmlns:rdf="http://www.w3.org/1999/02/22-rdf-syntax-ns#" xmlns="http://www.w3.org/2000/svg" xmlns:cc="http://creativecommons.org/ns#" xmlns:dc="http://purl.org/dc/elements/1.1/" xmlns:svg="http://www.w3.org/2000/svg" id="svg6271" viewBox="0 0 421.4 341.69" version="1.0">
  <g id="layer1" stroke="#000" transform="translate(-71.72 -253.52)">
    <path id="path3708" d="m140.77 567.84l80.03-6.11c-59.95-28.8 12.11-181.59 20.16-203.39 28.43 11.5 12.86 58.01 68.3 76.51-22.9-40.16-15.8-83.32-65.71-84.48 50.45-4.88 79.89-34.75 90.33-49.62-91.89 20.12-71.79 27.25-95.68 41.38 4.89-20.09 46.77-40.17 32.65-85.25-15.89 27.96-46.78 40.92-47.67 83.88-28.78-52.85-57.56-27.71-96.34-40.56-6.78 12.15 35.44 12.29 89.66 48.44-57.23-2.04-77.45 52.92-75.68 65.88 31.11-40.71 37.22-19.42 87.33-60.12-109.87 215.06-78.31 189.98-87.38 213.44z" stroke-width="6.7171" stroke-miterlimit="0" fill="#67bb27"/>
    <path id="path7055" d="m330.72 472.79c-57.47 0-104.13 36.55-104.13 81.58 0 4.53 0.59 8.95 1.5 13.28h205.24c0.91-4.33 1.5-8.75 1.5-13.28 0-45.03-46.64-81.58-104.11-81.58z" stroke-width="4.3308" fill="#ffaa08"/>
    <path id="path6292" d="m297.15 591.07c-119.48 1.54-221.62-3.48-221.62-3.48l-0.865 0.97s201.54-114.14 413.56 0l1.96 0.46c-64.49 6.38-130.44 1.24-193.03 2.05z" stroke-width="5.89" fill="#e6cc00" fill-rule="evenodd"/>
  </g>
  <metadata>
    <rdf:RDF>
      <cc:Work>
        <dc:format>image/svg+xml</dc:format>
        <dc:type rdf:resource="http://purl.org/dc/dcmitype/StillImage"/>
        <cc:license rdf:resource="http://creativecommons.org/licenses/publicdomain/"/>
        <dc:publisher>
          <cc:Agent rdf:about="http://openclipart.org/">
            <dc:title>Openclipart</dc:title>
          </cc:Agent>
        </dc:publisher>
        <dc:title>island palm and the sun</dc:title>
        <dc:date>2008-02-05T15:08:53</dc:date>
        <dc:description>clip art, clipart, image, island, island, isle, isle, landscape, landscape, media, palm, palm, png, public domain, summer, summer, sun, sun, svg, tropics, tropics, vacation, vacation, </dc:description>
        <dc:source>http://openclipart.org/detail/12857/island-palm-and-the-sun-by-anonymous-12857</dc:source>
        <dc:creator>
          <cc:Agent>
            <dc:title>Anonymous</dc:title>
          </cc:Agent>
        </dc:creator>
        <dc:subject>
          <rdf:Bag>
            <rdf:li>clip art</rdf:li>
            <rdf:li>clipart</rdf:li>
            <rdf:li>image</rdf:li>
            <rdf:li>island</rdf:li>
            <rdf:li>isle</rdf:li>
            <rdf:li>landscape</rdf:li>
            <rdf:li>media</rdf:li>
            <rdf:li>palm</rdf:li>
            <rdf:li>png</rdf:li>
            <rdf:li>public domain</rdf:li>
            <rdf:li>summer</rdf:li>
            <rdf:li>sun</rdf:li>
            <rdf:li>svg</rdf:li>
            <rdf:li>tropics</rdf:li>
            <rdf:li>vacation</rdf:li>
          </rdf:Bag>
        </dc:subject>
      </cc:Work>
      <cc:License rdf:about="http://creativecommons.org/licenses/publicdomain/">
        <cc:permits rdf:resource="http://creativecommons.org/ns#Reproduction"/>
        <cc:permits rdf:resource="http://creativecommons.org/ns#Distribution"/>
        <cc:permits rdf:resource="http://creativecommons.org/ns#DerivativeWorks"/>
      </cc:License>
    </rdf:RDF>
  </metadata>
</svg>
